<svg width="13" height="11" viewBox="0 0 13 11" fill="none" xmlns="http://www.w3.org/2000/svg">
<path d="M12.8411 5.8891L7.9663 10.8388C7.86467 10.942 7.72682 11 7.58308 11C7.43935 11 7.3015 10.942 7.19987 10.8388C7.09823 10.7356 7.04113 10.5957 7.04113 10.4497C7.04113 10.3038 7.09823 10.1638 7.19987 10.0606L11.1505 6.04997H0.541649C0.397995 6.04997 0.260224 5.99203 0.158645 5.88889C0.0570665 5.78575 0 5.64586 0 5.5C0 5.35414 0.0570665 5.21425 0.158645 5.11111C0.260224 5.00797 0.397995 4.95003 0.541649 4.95003H11.1505L7.19987 0.939378C7.09823 0.836182 7.04113 0.696217 7.04113 0.550275C7.04113 0.404333 7.09823 0.264368 7.19987 0.161172C7.3015 0.0579752 7.43935 0 7.58308 0C7.72682 0 7.86467 0.0579752 7.9663 0.161172L12.8411 5.1109C12.8915 5.16197 12.9315 5.22263 12.9587 5.28939C12.986 5.35616 13 5.42773 13 5.5C13 5.57227 12.986 5.64384 12.9587 5.7106C12.9315 5.77737 12.8915 5.83803 12.8411 5.8891Z" fill="black"/>
</svg>
