<svg width="30" height="35" viewBox="0 0 30 35" fill="none" xmlns="http://www.w3.org/2000/svg">
<path d="M21.8182 22.0369C21.8182 22.3808 21.6745 22.7105 21.4188 22.9536C21.1631 23.1967 20.8162 23.3333 20.4545 23.3333H9.54545C9.1838 23.3333 8.83695 23.1967 8.58122 22.9536C8.32549 22.7105 8.18182 22.3808 8.18182 22.0369C8.18182 21.6931 8.32549 21.3634 8.58122 21.1203C8.83695 20.8772 9.1838 20.7406 9.54545 20.7406H20.4545C20.8162 20.7406 21.1631 20.8772 21.4188 21.1203C21.6745 21.3634 21.8182 21.6931 21.8182 22.0369ZM20.4545 15.5554H9.54545C9.1838 15.5554 8.83695 15.692 8.58122 15.9351C8.32549 16.1782 8.18182 16.5079 8.18182 16.8517C8.18182 17.1955 8.32549 17.5253 8.58122 17.7684C8.83695 18.0115 9.1838 18.148 9.54545 18.148H20.4545C20.8162 18.148 21.1631 18.0115 21.4188 17.7684C21.6745 17.5253 21.8182 17.1955 21.8182 16.8517C21.8182 16.5079 21.6745 16.1782 21.4188 15.9351C21.1631 15.692 20.8162 15.5554 20.4545 15.5554ZM30 5.18499V32.4074C30 33.095 29.7127 33.7544 29.2012 34.2406C28.6897 34.7268 27.996 35 27.2727 35H2.72727C2.00396 35 1.31026 34.7268 0.7988 34.2406C0.287337 33.7544 0 33.095 0 32.4074V5.18499C0 4.49738 0.287337 3.83794 0.7988 3.35173C1.31026 2.86552 2.00396 2.59238 2.72727 2.59238H8.90796C9.67416 1.77688 10.6129 1.1244 11.6627 0.677665C12.7125 0.230927 13.8498 0 15 0C16.1502 0 17.2875 0.230927 18.3373 0.677665C19.3871 1.1244 20.3258 1.77688 21.092 2.59238H27.2727C27.996 2.59238 28.6897 2.86552 29.2012 3.35173C29.7127 3.83794 30 4.49738 30 5.18499ZM9.54545 7.77759H20.4545C20.4545 6.40239 19.8799 5.08351 18.8569 4.11109C17.834 3.13867 16.4466 2.59238 15 2.59238C13.5534 2.59238 12.166 3.13867 11.1431 4.11109C10.1201 5.08351 9.54545 6.40239 9.54545 7.77759ZM27.2727 5.18499H22.7131C23.0233 6.01756 23.1818 6.89434 23.1818 7.77759V9.0739C23.1818 9.4177 23.0382 9.74742 22.7824 9.99053C22.5267 10.2336 22.1798 10.3702 21.8182 10.3702H8.18182C7.82016 10.3702 7.47331 10.2336 7.21758 9.99053C6.96185 9.74742 6.81818 9.4177 6.81818 9.0739V7.77759C6.81821 6.89434 6.97674 6.01756 7.28693 5.18499H2.72727V32.4074H27.2727V5.18499Z" fill="white"/>
</svg>
