<svg width="45" height="39" viewBox="0 0 45 39" fill="none" xmlns="http://www.w3.org/2000/svg">
<path d="M43.5 36.0001H40.5V15.0012C40.5 14.2056 40.1839 13.4426 39.6213 12.88C39.0587 12.3174 38.2956 12.0013 37.5 12.0013H25.5V3.0018C25.5004 2.45857 25.3532 1.92544 25.0742 1.45931C24.7952 0.993188 24.3949 0.61156 23.916 0.355164C23.437 0.0987677 22.8974 -0.0227727 22.3548 0.00351521C21.8122 0.0298031 21.2869 0.202933 20.835 0.504425L5.835 10.5014C5.42351 10.7759 5.08629 11.148 4.85337 11.5843C4.62046 12.0207 4.49906 12.5079 4.5 13.0025V36.0001H1.5C1.10218 36.0001 0.720644 36.1582 0.43934 36.4395C0.158035 36.7208 0 37.1023 0 37.5001C0 37.8979 0.158035 38.2794 0.43934 38.5607C0.720644 38.842 1.10218 39 1.5 39H43.5C43.8978 39 44.2794 38.842 44.5607 38.5607C44.842 38.2794 45 37.8979 45 37.5001C45 37.1023 44.842 36.7208 44.5607 36.4395C44.2794 36.1582 43.8978 36.0001 43.5 36.0001ZM37.5 15.0012V36.0001H25.5V15.0012H37.5ZM7.5 13.0025L22.5 3.0018V36.0001H7.5V13.0025ZM19.5 18.001V21.0009C19.5 21.3987 19.342 21.7802 19.0607 22.0615C18.7794 22.3428 18.3978 22.5008 18 22.5008C17.6022 22.5008 17.2206 22.3428 16.9393 22.0615C16.658 21.7802 16.5 21.3987 16.5 21.0009V18.001C16.5 17.6032 16.658 17.2217 16.9393 16.9404C17.2206 16.6592 17.6022 16.5011 18 16.5011C18.3978 16.5011 18.7794 16.6592 19.0607 16.9404C19.342 17.2217 19.5 17.6032 19.5 18.001ZM13.5 18.001V21.0009C13.5 21.3987 13.342 21.7802 13.0607 22.0615C12.7794 22.3428 12.3978 22.5008 12 22.5008C11.6022 22.5008 11.2206 22.3428 10.9393 22.0615C10.658 21.7802 10.5 21.3987 10.5 21.0009V18.001C10.5 17.6032 10.658 17.2217 10.9393 16.9404C11.2206 16.6592 11.6022 16.5011 12 16.5011C12.3978 16.5011 12.7794 16.6592 13.0607 16.9404C13.342 17.2217 13.5 17.6032 13.5 18.001ZM13.5 28.5005V31.5004C13.5 31.8982 13.342 32.2797 13.0607 32.561C12.7794 32.8423 12.3978 33.0003 12 33.0003C11.6022 33.0003 11.2206 32.8423 10.9393 32.561C10.658 32.2797 10.5 31.8982 10.5 31.5004V28.5005C10.5 28.1027 10.658 27.7212 10.9393 27.4399C11.2206 27.1586 11.6022 27.0006 12 27.0006C12.3978 27.0006 12.7794 27.1586 13.0607 27.4399C13.342 27.7212 13.5 28.1027 13.5 28.5005ZM19.5 28.5005V31.5004C19.5 31.8982 19.342 32.2797 19.0607 32.561C18.7794 32.8423 18.3978 33.0003 18 33.0003C17.6022 33.0003 17.2206 32.8423 16.9393 32.561C16.658 32.2797 16.5 31.8982 16.5 31.5004V28.5005C16.5 28.1027 16.658 27.7212 16.9393 27.4399C17.2206 27.1586 17.6022 27.0006 18 27.0006C18.3978 27.0006 18.7794 27.1586 19.0607 27.4399C19.342 27.7212 19.5 28.1027 19.5 28.5005Z" fill="white"/>
</svg>
