<svg width="25" height="25" viewBox="0 0 25 25" fill="none" xmlns="http://www.w3.org/2000/svg">
<path d="M12.1875 0C9.77705 0 7.42072 0.714784 5.41649 2.05396C3.41227 3.39314 1.85017 5.29657 0.927724 7.52354C0.00528065 9.75052 -0.236072 12.201 0.234185 14.5652C0.704442 16.9293 1.86519 19.1009 3.56964 20.8054C5.27409 22.5098 7.4457 23.6706 9.80984 24.1408C12.174 24.6111 14.6245 24.3697 16.8515 23.4473C19.0784 22.5248 20.9819 20.9627 22.321 18.9585C23.6602 16.9543 24.375 14.598 24.375 12.1875C24.3716 8.95622 23.0865 5.85826 20.8016 3.5734C18.5167 1.28854 15.4188 0.00341229 12.1875 0ZM12.1875 22.5C10.1479 22.5 8.15407 21.8952 6.45819 20.762C4.7623 19.6289 3.44053 18.0183 2.66 16.1339C1.87947 14.2496 1.67525 12.1761 2.07316 10.1756C2.47107 8.1752 3.45324 6.33769 4.89547 4.89546C6.3377 3.45323 8.17521 2.47106 10.1756 2.07315C12.1761 1.67524 14.2496 1.87946 16.1339 2.65999C18.0183 3.44052 19.6289 4.7623 20.762 6.45818C21.8952 8.15406 22.5 10.1479 22.5 12.1875C22.4969 14.9216 21.4094 17.5428 19.4761 19.4761C17.5428 21.4094 14.9216 22.4969 12.1875 22.5ZM19.6875 12.1875C19.6875 12.4361 19.5887 12.6746 19.4129 12.8504C19.2371 13.0262 18.9986 13.125 18.75 13.125H12.1875C11.9389 13.125 11.7004 13.0262 11.5246 12.8504C11.3488 12.6746 11.25 12.4361 11.25 12.1875V5.625C11.25 5.37636 11.3488 5.1379 11.5246 4.96209C11.7004 4.78627 11.9389 4.6875 12.1875 4.6875C12.4361 4.6875 12.6746 4.78627 12.8504 4.96209C13.0262 5.1379 13.125 5.37636 13.125 5.625V11.25H18.75C18.9986 11.25 19.2371 11.3488 19.4129 11.5246C19.5887 11.7004 19.6875 11.9389 19.6875 12.1875Z" fill="white"/>
</svg>
