<svg width="30" height="33" viewBox="0 0 30 33" fill="none" xmlns="http://www.w3.org/2000/svg">
<path d="M27.5 2.53846H23.75V1.26923C23.75 0.93261 23.6183 0.609776 23.3839 0.371749C23.1495 0.133722 22.8315 0 22.5 0C22.1685 0 21.8505 0.133722 21.6161 0.371749C21.3817 0.609776 21.25 0.93261 21.25 1.26923V2.53846H8.75V1.26923C8.75 0.93261 8.6183 0.609776 8.38388 0.371749C8.14946 0.133722 7.83152 0 7.5 0C7.16848 0 6.85054 0.133722 6.61612 0.371749C6.3817 0.609776 6.25 0.93261 6.25 1.26923V2.53846H2.5C1.83696 2.53846 1.20107 2.80591 0.732233 3.28196C0.263392 3.75801 0 4.40368 0 5.07692V30.4615C0 31.1348 0.263392 31.7804 0.732233 32.2565C1.20107 32.7326 1.83696 33 2.5 33H27.5C28.163 33 28.7989 32.7326 29.2678 32.2565C29.7366 31.7804 30 31.1348 30 30.4615V5.07692C30 4.40368 29.7366 3.75801 29.2678 3.28196C28.7989 2.80591 28.163 2.53846 27.5 2.53846ZM6.25 5.07692V6.34615C6.25 6.68277 6.3817 7.00561 6.61612 7.24364C6.85054 7.48166 7.16848 7.61538 7.5 7.61538C7.83152 7.61538 8.14946 7.48166 8.38388 7.24364C8.6183 7.00561 8.75 6.68277 8.75 6.34615V5.07692H21.25V6.34615C21.25 6.68277 21.3817 7.00561 21.6161 7.24364C21.8505 7.48166 22.1685 7.61538 22.5 7.61538C22.8315 7.61538 23.1495 7.48166 23.3839 7.24364C23.6183 7.00561 23.75 6.68277 23.75 6.34615V5.07692H27.5V10.1538H2.5V5.07692H6.25ZM27.5 30.4615H2.5V12.6923H27.5V30.4615ZM21.5094 16.8712C21.6256 16.9891 21.7178 17.1291 21.7807 17.2832C21.8436 17.4373 21.876 17.6024 21.876 17.7692C21.876 17.936 21.8436 18.1012 21.7807 18.2553C21.7178 18.4094 21.6256 18.5493 21.5094 18.6672L14.0094 26.2826C13.8933 26.4006 13.7554 26.4942 13.6037 26.5581C13.4519 26.622 13.2893 26.6548 13.125 26.6548C12.9607 26.6548 12.7981 26.622 12.6463 26.5581C12.4946 26.4942 12.3567 26.4006 12.2406 26.2826L8.49062 22.4749C8.25607 22.2367 8.12431 21.9137 8.12431 21.5769C8.12431 21.2401 8.25607 20.9171 8.49062 20.6789C8.72518 20.4408 9.0433 20.307 9.375 20.307C9.7067 20.307 10.0248 20.4408 10.2594 20.6789L13.125 23.5902L19.7406 16.8712C19.8567 16.7532 19.9946 16.6596 20.1463 16.5958C20.2981 16.5319 20.4607 16.499 20.625 16.499C20.7893 16.499 20.9519 16.5319 21.1037 16.5958C21.2554 16.6596 21.3933 16.7532 21.5094 16.8712Z" fill="white"/>
</svg>
