<svg width="33" height="33" viewBox="0 0 33 33" fill="none" xmlns="http://www.w3.org/2000/svg">
<path d="M11.8752 14.4422C12.0653 14.3325 12.2231 14.1746 12.3328 13.9845C12.4425 13.7945 12.5003 13.5788 12.5002 13.3594V2.10938C12.4991 1.91009 12.4504 1.71395 12.358 1.53733C12.2657 1.36071 12.1325 1.20872 11.9695 1.09405C11.8065 0.979371 11.6185 0.905329 11.4211 0.878097C11.2236 0.850865 11.0226 0.871232 10.8346 0.9375C7.18613 2.22877 4.11791 4.77913 2.18151 8.13011C0.245098 11.4811 -0.432493 15.4129 0.270541 19.2188C0.306982 19.4156 0.39015 19.6007 0.513051 19.7587C0.635951 19.9167 0.79499 20.0428 0.976791 20.1266C1.14063 20.2032 1.31936 20.2427 1.50023 20.2422C1.71962 20.2423 1.93518 20.1846 2.12523 20.075L11.8752 14.4422ZM10.0002 4.00312V12.6375L2.51898 16.9547C2.50023 16.7188 2.50023 16.4813 2.50023 16.25C2.50245 13.7162 3.20381 11.2321 4.52709 9.07131C5.85038 6.9105 7.74427 5.15674 10.0002 4.00312ZM16.2502 0C15.9187 0 15.6008 0.131696 15.3663 0.366116C15.1319 0.600537 15.0002 0.918479 15.0002 1.25V15.5969L2.68617 22.7703C2.54327 22.8531 2.41821 22.9635 2.31821 23.0949C2.2182 23.2264 2.14525 23.3764 2.10355 23.5362C2.06185 23.696 2.05224 23.8625 2.07527 24.0261C2.0983 24.1896 2.15352 24.347 2.23773 24.4891C3.68102 26.9427 5.74352 28.9741 8.21876 30.3799C10.694 31.7858 13.4951 32.5168 16.3417 32.4997C19.1882 32.4826 21.9804 31.7181 24.4386 30.2826C26.8967 28.8472 28.9347 26.7911 30.3485 24.3204C31.7622 21.8497 32.5021 19.0509 32.4941 16.2043C32.4861 13.3577 31.7305 10.5631 30.3028 8.10037C28.8752 5.63762 26.8257 3.5931 24.3595 2.17149C21.8932 0.74988 19.0968 0.00106176 16.2502 0ZM16.2502 30C14.0681 29.9942 11.9184 29.4718 9.97689 28.4757C8.0354 27.4795 6.35732 26.0379 5.07992 24.2688L16.8799 17.3938C17.0698 17.2841 17.2274 17.1266 17.3371 16.9368C17.4468 16.747 17.5047 16.5317 17.5049 16.3125V2.55625C21.0306 2.87612 24.297 4.54351 26.6242 7.21126C28.9513 9.87901 30.1599 13.3415 29.9982 16.878C29.8365 20.4144 28.317 23.7522 25.7562 26.1965C23.1953 28.6408 19.7904 30.0032 16.2502 30Z" fill="white"/>
</svg>
