<svg width="32" height="30" viewBox="0 0 32 30" fill="none" xmlns="http://www.w3.org/2000/svg">
<path d="M31.0827 13.1249L21.8596 3.83895C19.3964 1.38065 16.0585 0 12.5785 0C9.09844 0 5.76055 1.38065 3.29733 3.83895L3.28502 3.85125L1.4024 5.79676C1.20738 6.00634 1.10231 6.28403 1.10974 6.57021C1.11716 6.8564 1.2365 7.12826 1.44212 7.32745C1.64775 7.52663 1.92328 7.63726 2.20955 7.63557C2.49583 7.63389 2.77003 7.52003 2.9733 7.31844L4.85045 5.37977C5.60567 4.6247 6.4675 3.98443 7.40846 3.47938L13.7659 9.84363L0.640881 22.9686C0.4377 23.1718 0.276525 23.4129 0.166561 23.6784C0.0565979 23.9438 0 24.2283 0 24.5156C0 24.8029 0.0565979 25.0874 0.166561 25.3528C0.276525 25.6183 0.4377 25.8594 0.640881 26.0626L3.46959 28.8913C3.67273 29.0945 3.9139 29.2556 4.17933 29.3656C4.44476 29.4756 4.72926 29.5322 5.01656 29.5322C5.30387 29.5322 5.58837 29.4756 5.8538 29.3656C6.11923 29.2556 6.3604 29.0945 6.56354 28.8913L19.6885 15.7663L21.6491 17.7268L24.0635 20.1386C24.2667 20.3417 24.5078 20.5029 24.7733 20.6129C25.0387 20.7228 25.3232 20.7794 25.6105 20.7794C25.8978 20.7794 26.1823 20.7228 26.4477 20.6129C26.7132 20.5029 26.9543 20.3417 27.1575 20.1386L31.0799 16.2161C31.4898 15.8063 31.7203 15.2506 31.7208 14.6711C31.7213 14.0915 31.4918 13.5354 31.0827 13.1249ZM5.01588 27.3436L2.18854 24.5149L11.4854 15.218L14.3128 18.0468L5.01588 27.3436ZM18.9147 13.4421L15.8604 16.4977L13.0317 13.6718L16.0874 10.6161C16.1891 10.5145 16.2697 10.3939 16.3248 10.2611C16.3798 10.1283 16.4081 9.986 16.4081 9.84227C16.4081 9.69853 16.3798 9.5562 16.3248 9.42342C16.2697 9.29065 16.1891 9.17002 16.0874 9.06844L9.6151 2.59754C11.485 2.07089 13.4615 2.0518 15.3413 2.54223C17.2211 3.03266 18.9363 4.0149 20.3106 5.38797L26.3563 11.4733L22.4229 15.4026L20.4624 13.4421C20.3608 13.3404 20.2402 13.2597 20.1074 13.2047C19.9746 13.1496 19.8323 13.1213 19.6885 13.1213C19.5448 13.1213 19.4025 13.1496 19.2697 13.2047C19.1369 13.2597 19.0163 13.3404 18.9147 13.4421ZM25.6139 18.5909L23.9733 16.9503L27.8917 13.0223L29.5323 14.663L25.6139 18.5909Z" fill="white"/>
</svg>
