<svg width="35" height="29" viewBox="0 0 35 29" fill="none" xmlns="http://www.w3.org/2000/svg">
<path d="M32.5 20V17.5C32.4916 14.4001 31.5267 11.3783 29.7369 8.84718C27.9472 6.31608 25.4198 4.39905 22.5 3.35781V2.5C22.5 1.83696 22.2366 1.20107 21.7678 0.732233C21.2989 0.263392 20.663 0 20 0H15C14.337 0 13.7011 0.263392 13.2322 0.732233C12.7634 1.20107 12.5 1.83696 12.5 2.5V3.35781C9.58016 4.39905 7.05284 6.31608 5.26309 8.84718C3.47334 11.3783 2.5084 14.4001 2.5 17.5V20C1.83696 20 1.20107 20.2634 0.732233 20.7322C0.263392 21.2011 0 21.837 0 22.5V26.25C0 26.913 0.263392 27.5489 0.732233 28.0178C1.20107 28.4866 1.83696 28.75 2.5 28.75H32.5C33.163 28.75 33.7989 28.4866 34.2678 28.0178C34.7366 27.5489 35 26.913 35 26.25V22.5C35 21.837 34.7366 21.2011 34.2678 20.7322C33.7989 20.2634 33.163 20 32.5 20ZM30 17.5V20H22.5V6.04219C24.7251 7.02106 26.6182 8.62476 27.9495 10.6586C29.2808 12.6925 29.9931 15.0691 30 17.5ZM20 2.5V20H15V2.5H20ZM5 17.5C5.00686 15.0691 5.71918 12.6925 7.05051 10.6586C8.38184 8.62476 10.2749 7.02106 12.5 6.04219V20H5V17.5ZM32.5 26.25H2.5V22.5H32.5V26.25Z" fill="white"/>
</svg>
