<svg width="25" height="25" viewBox="0 0 25 25" fill="none" xmlns="http://www.w3.org/2000/svg">
<path d="M12.5 6.73077C11.359 6.73077 10.2435 7.06913 9.29479 7.70306C8.34604 8.33699 7.60659 9.23802 7.16993 10.2922C6.73327 11.3464 6.61902 12.5064 6.84162 13.6255C7.06423 14.7446 7.6137 15.7726 8.42054 16.5795C9.22738 17.3863 10.2554 17.9358 11.3745 18.1584C12.4936 18.381 13.6536 18.2667 14.7078 17.8301C15.762 17.3934 16.663 16.654 17.2969 15.7052C17.9309 14.7565 18.2692 13.641 18.2692 12.5C18.2676 10.9704 17.6593 9.50389 16.5777 8.42229C15.4961 7.3407 14.0296 6.73236 12.5 6.73077ZM12.5 16.3462C11.7393 16.3462 10.9957 16.1206 10.3632 15.698C9.73069 15.2753 9.23772 14.6747 8.94662 13.9719C8.65551 13.2691 8.57934 12.4957 8.72775 11.7497C8.87615 11.0036 9.24246 10.3183 9.78036 9.78036C10.3183 9.24246 11.0036 8.87615 11.7497 8.72775C12.4957 8.57934 13.2691 8.65551 13.9719 8.94662C14.6747 9.23772 15.2753 9.73069 15.698 10.3632C16.1206 10.9957 16.3462 11.7393 16.3462 12.5C16.3462 13.5201 15.9409 14.4983 15.2196 15.2196C14.4983 15.9409 13.5201 16.3462 12.5 16.3462ZM18.2692 0H6.73077C4.94624 0.00190892 3.23536 0.711655 1.97351 1.97351C0.711655 3.23536 0.00190892 4.94624 0 6.73077V18.2692C0.00190892 20.0538 0.711655 21.7646 1.97351 23.0265C3.23536 24.2883 4.94624 24.9981 6.73077 25H18.2692C20.0538 24.9981 21.7646 24.2883 23.0265 23.0265C24.2883 21.7646 24.9981 20.0538 25 18.2692V6.73077C24.9981 4.94624 24.2883 3.23536 23.0265 1.97351C21.7646 0.711655 20.0538 0.00190892 18.2692 0ZM23.0769 18.2692C23.0769 19.5443 22.5704 20.7672 21.6688 21.6688C20.7672 22.5704 19.5443 23.0769 18.2692 23.0769H6.73077C5.45569 23.0769 4.23283 22.5704 3.33122 21.6688C2.4296 20.7672 1.92308 19.5443 1.92308 18.2692V6.73077C1.92308 5.45569 2.4296 4.23283 3.33122 3.33122C4.23283 2.4296 5.45569 1.92308 6.73077 1.92308H18.2692C19.5443 1.92308 20.7672 2.4296 21.6688 3.33122C22.5704 4.23283 23.0769 5.45569 23.0769 6.73077V18.2692ZM20.1923 6.25C20.1923 6.53526 20.1077 6.81412 19.9492 7.0513C19.7908 7.28849 19.5655 7.47335 19.3019 7.58252C19.0384 7.69168 18.7484 7.72025 18.4686 7.66459C18.1888 7.60894 17.9318 7.47158 17.7301 7.26987C17.5284 7.06816 17.3911 6.81116 17.3354 6.53138C17.2798 6.2516 17.3083 5.9616 17.4175 5.69805C17.5266 5.43451 17.7115 5.20925 17.9487 5.05076C18.1859 4.89228 18.4647 4.80769 18.75 4.80769C19.1325 4.80769 19.4994 4.95965 19.7699 5.23013C20.0403 5.50062 20.1923 5.86748 20.1923 6.25Z" fill="white"/>
</svg>
