<svg width="21" height="27" viewBox="0 0 21 27" fill="none" xmlns="http://www.w3.org/2000/svg">
<path d="M10.3125 5.625C9.3854 5.625 8.47912 5.89992 7.70826 6.41499C6.93741 6.93006 6.3366 7.66214 5.98181 8.51867C5.62703 9.3752 5.5342 10.3177 5.71507 11.227C5.89594 12.1363 6.34238 12.9715 6.99794 13.6271C7.6535 14.2826 8.48873 14.7291 9.39801 14.9099C10.3073 15.0908 11.2498 14.998 12.1063 14.6432C12.9629 14.2884 13.6949 13.6876 14.21 12.9167C14.7251 12.1459 15 11.2396 15 10.3125C15 9.0693 14.5061 7.87701 13.6271 6.99794C12.748 6.11886 11.5557 5.625 10.3125 5.625ZM10.3125 13.125C9.75624 13.125 9.21247 12.96 8.74996 12.651C8.28745 12.342 7.92696 11.9027 7.71409 11.3888C7.50122 10.8749 7.44552 10.3094 7.55404 9.76381C7.66256 9.21824 7.93043 8.7171 8.32376 8.32376C8.7171 7.93043 9.21824 7.66256 9.76381 7.55404C10.3094 7.44552 10.8749 7.50122 11.3888 7.71409C11.9027 7.92696 12.342 8.28745 12.651 8.74996C12.9601 9.21247 13.125 9.75624 13.125 10.3125C13.125 11.0584 12.8287 11.7738 12.3012 12.3012C11.7738 12.8287 11.0584 13.125 10.3125 13.125ZM10.3125 0C7.57841 0.00310164 4.95718 1.09059 3.02389 3.02389C1.09059 4.95718 0.00310164 7.57841 0 10.3125C0 13.9922 1.70039 17.8922 4.92188 21.5918C6.3694 23.2636 7.99858 24.7689 9.7793 26.0801C9.93693 26.1905 10.1247 26.2497 10.3172 26.2497C10.5096 26.2497 10.6974 26.1905 10.8551 26.0801C12.6325 24.7684 14.2585 23.263 15.7031 21.5918C18.9199 17.8922 20.625 13.9922 20.625 10.3125C20.6219 7.57841 19.5344 4.95718 17.6011 3.02389C15.6678 1.09059 13.0466 0.00310164 10.3125 0ZM10.3125 24.1406C8.37539 22.6172 1.875 17.0215 1.875 10.3125C1.875 8.07474 2.76395 5.92862 4.34629 4.34629C5.92862 2.76395 8.07474 1.875 10.3125 1.875C12.5503 1.875 14.6964 2.76395 16.2787 4.34629C17.8611 5.92862 18.75 8.07474 18.75 10.3125C18.75 17.0191 12.2496 22.6172 10.3125 24.1406Z" fill="white"/>
</svg>
