<svg width="25" height="19" viewBox="0 0 25 19" fill="none" xmlns="http://www.w3.org/2000/svg">
<path d="M23.4375 0H0.9375C0.68886 0 0.450403 0.0987722 0.274587 0.274588C0.098772 0.450403 0 0.68886 0 0.9375V16.875C0 17.3723 0.197544 17.8492 0.549175 18.2008C0.900805 18.5525 1.37772 18.75 1.875 18.75H22.5C22.9973 18.75 23.4742 18.5525 23.8258 18.2008C24.1775 17.8492 24.375 17.3723 24.375 16.875V0.9375C24.375 0.68886 24.2762 0.450403 24.1004 0.274588C23.9246 0.0987722 23.6861 0 23.4375 0ZM12.1875 9.97851L3.34805 1.875H21.027L12.1875 9.97851ZM8.75508 9.375L1.875 15.6809V3.06914L8.75508 9.375ZM10.1426 10.6465L11.5488 11.9414C11.7218 12.1002 11.948 12.1883 12.1828 12.1883C12.4176 12.1883 12.6438 12.1002 12.8168 11.9414L14.223 10.6465L21.0199 16.875H3.34805L10.1426 10.6465ZM15.6199 9.375L22.5 3.06797V15.682L15.6199 9.375Z" fill="white"/>
</svg>
