<svg width="40" height="40" viewBox="0 0 40 40" fill="none" xmlns="http://www.w3.org/2000/svg">
<path d="M39.163 10.2444L29.7547 0.837087C29.4894 0.571702 29.1744 0.361183 28.8278 0.217554C28.4811 0.0739254 28.1095 0 27.7343 0C27.3591 0 26.9875 0.0739254 26.6408 0.217554C26.2942 0.361183 25.9792 0.571702 25.7139 0.837087L0.837012 25.7144C0.57165 25.9797 0.361151 26.2947 0.217535 26.6414C0.0739188 26.9881 0 27.3597 0 27.735C0 28.1103 0.0739188 28.4819 0.217535 28.8285C0.361151 29.1752 0.57165 29.4902 0.837012 29.7556L10.2453 39.1629C10.5106 39.4283 10.8256 39.6388 11.1722 39.7824C11.5189 39.9261 11.8905 40 12.2657 40C12.6409 40 13.0125 39.9261 13.3592 39.7824C13.7058 39.6388 14.0208 39.4283 14.2861 39.1629L39.163 14.2856C39.4283 14.0203 39.6388 13.7053 39.7825 13.3586C39.9261 13.0119 40 12.6403 40 12.265C40 11.8897 39.9261 11.5181 39.7825 11.1715C39.6388 10.8248 39.4283 10.5098 39.163 10.2444ZM12.2648 37.1432L2.8583 27.7341L8.5722 22.0197L13.2755 26.7251C13.4082 26.8579 13.5657 26.9632 13.7391 27.035C13.9125 27.1068 14.0984 27.1438 14.2861 27.1438C14.4738 27.1438 14.6597 27.1068 14.8331 27.035C15.0065 26.9632 15.164 26.8579 15.2967 26.7251C15.4295 26.5924 15.5347 26.4348 15.6066 26.2614C15.6784 26.088 15.7154 25.9021 15.7154 25.7144C15.7154 25.5267 15.6784 25.3408 15.6066 25.1674C15.5347 24.994 15.4295 24.8364 15.2967 24.7037L10.5917 20L14.2861 16.3053L18.9894 21.0107C19.2574 21.2788 19.6209 21.4294 20 21.4294C20.3791 21.4294 20.7426 21.2788 21.0106 21.0107C21.2787 20.7427 21.4293 20.3791 21.4293 20C21.4293 19.6209 21.2787 19.2573 21.0106 18.9893L16.3056 14.2856L20 10.5909L24.7033 15.2963C24.836 15.4291 24.9935 15.5343 25.1669 15.6062C25.3403 15.678 25.5262 15.715 25.7139 15.715C25.9016 15.715 26.0874 15.678 26.2609 15.6062C26.4343 15.5343 26.5918 15.4291 26.7245 15.2963C26.8573 15.1636 26.9625 15.006 27.0344 14.8326C27.1062 14.6592 27.1432 14.4733 27.1432 14.2856C27.1432 14.0979 27.1062 13.912 27.0344 13.7386C26.9625 13.5652 26.8573 13.4076 26.7245 13.2749L22.0195 8.57118L27.7334 2.85677L37.1417 12.2659L12.2648 37.1432Z" fill="white"/>
</svg>
