<svg width="35" height="36" viewBox="0 0 35 36" fill="none" xmlns="http://www.w3.org/2000/svg">
<path d="M32.0833 0H2.91667C2.14312 0 1.40125 0.303427 0.854272 0.84353C0.307291 1.38363 0 2.11617 0 2.87999V12.96C0 22.4495 4.65208 28.2005 8.55495 31.3541C12.7586 34.7489 16.9404 35.9009 17.1227 35.9495C17.3733 36.0168 17.6376 36.0168 17.8883 35.9495C18.0706 35.9009 22.2469 34.7489 26.456 31.3541C30.3479 28.2005 35 22.4495 35 12.96V2.87999C35 2.11617 34.6927 1.38363 34.1457 0.84353C33.5987 0.303427 32.8569 0 32.0833 0ZM32.0833 12.96C32.0833 19.6325 29.5932 25.0487 24.6823 29.0555C22.5445 30.7938 20.1132 32.1465 17.5 33.0515C14.921 32.1623 12.5197 30.8336 10.4052 29.1257C5.43594 25.1117 2.91667 19.6739 2.91667 12.96V2.87999H32.0833V12.96ZM9.17656 18.2987C8.90292 18.0285 8.74919 17.6621 8.74919 17.28C8.74919 16.8978 8.90292 16.5314 9.17656 16.2612C9.4502 15.991 9.82134 15.8392 10.2083 15.8392C10.5953 15.8392 10.9665 15.991 11.2401 16.2612L14.5833 19.5641L23.7599 10.5012C23.8954 10.3674 24.0562 10.2613 24.2333 10.1888C24.4103 10.1164 24.6 10.0792 24.7917 10.0792C24.9833 10.0792 25.173 10.1164 25.3501 10.1888C25.5271 10.2613 25.6879 10.3674 25.8234 10.5012C25.9589 10.635 26.0664 10.7938 26.1397 10.9686C26.2131 11.1434 26.2508 11.3308 26.2508 11.52C26.2508 11.7092 26.2131 11.8965 26.1397 12.0713C26.0664 12.2461 25.9589 12.405 25.8234 12.5388L15.6151 22.6187C15.4797 22.7526 15.3188 22.8588 15.1418 22.9313C14.9647 23.0038 14.775 23.0411 14.5833 23.0411C14.3917 23.0411 14.2019 23.0038 14.0249 22.9313C13.8478 22.8588 13.687 22.7526 13.5516 22.6187L9.17656 18.2987Z" fill="white"/>
</svg>
