<svg width="30" height="30" viewBox="0 0 30 30" fill="none" xmlns="http://www.w3.org/2000/svg">
<path d="M28.1062 11.6277C27.6013 11.1 27.079 10.5562 26.8821 10.0781C26.7 9.64018 26.6893 8.91429 26.6786 8.21116C26.6585 6.90402 26.6371 5.42277 25.6071 4.39286C24.5772 3.36295 23.096 3.34152 21.7888 3.32143C21.0857 3.31071 20.3598 3.3 19.9219 3.11786C19.4451 2.92098 18.9 2.39866 18.3723 1.89375C17.4482 1.0058 16.3982 0 15 0C13.6018 0 12.5531 1.0058 11.6277 1.89375C11.1 2.39866 10.5562 2.92098 10.0781 3.11786C9.64286 3.3 8.91429 3.31071 8.21116 3.32143C6.90402 3.34152 5.42277 3.36295 4.39286 4.39286C3.36295 5.42277 3.34821 6.90402 3.32143 8.21116C3.31071 8.91429 3.3 9.64018 3.11786 10.0781C2.92098 10.5549 2.39866 11.1 1.89375 11.6277C1.0058 12.5518 0 13.6018 0 15C0 16.3982 1.0058 17.4469 1.89375 18.3723C2.39866 18.9 2.92098 19.4437 3.11786 19.9219C3.3 20.3598 3.31071 21.0857 3.32143 21.7888C3.34152 23.096 3.36295 24.5772 4.39286 25.6071C5.42277 26.6371 6.90402 26.6585 8.21116 26.6786C8.91429 26.6893 9.64018 26.7 10.0781 26.8821C10.5549 27.079 11.1 27.6013 11.6277 28.1062C12.5518 28.9942 13.6018 30 15 30C16.3982 30 17.4469 28.9942 18.3723 28.1062C18.9 27.6013 19.4437 27.079 19.9219 26.8821C20.3598 26.7 21.0857 26.6893 21.7888 26.6786C23.096 26.6585 24.5772 26.6371 25.6071 25.6071C26.6371 24.5772 26.6585 23.096 26.6786 21.7888C26.6893 21.0857 26.7 20.3598 26.8821 19.9219C27.079 19.4451 27.6013 18.9 28.1062 18.3723C28.9942 17.4482 30 16.3982 30 15C30 13.6018 28.9942 12.5531 28.1062 11.6277ZM26.5594 16.8897C25.9179 17.5594 25.2536 18.2518 24.9013 19.1022C24.5638 19.9192 24.5491 20.8527 24.5357 21.7567C24.5223 22.6942 24.5076 23.6759 24.0911 24.0911C23.6746 24.5062 22.6996 24.5223 21.7567 24.5357C20.8527 24.5491 19.9192 24.5638 19.1022 24.9013C18.2518 25.2536 17.5594 25.9179 16.8897 26.5594C16.2201 27.2009 15.5357 27.8571 15 27.8571C14.4643 27.8571 13.7746 27.1982 13.1103 26.5594C12.446 25.9205 11.7482 25.2536 10.8978 24.9013C10.0808 24.5638 9.14732 24.5491 8.2433 24.5357C7.3058 24.5223 6.32411 24.5076 5.90893 24.0911C5.49375 23.6746 5.47768 22.6996 5.46429 21.7567C5.45089 20.8527 5.43616 19.9192 5.09866 19.1022C4.74643 18.2518 4.08214 17.5594 3.44062 16.8897C2.79911 16.2201 2.14286 15.5357 2.14286 15C2.14286 14.4643 2.80179 13.7746 3.44062 13.1103C4.07946 12.446 4.74643 11.7482 5.09866 10.8978C5.43616 10.0808 5.45089 9.14732 5.46429 8.2433C5.47768 7.3058 5.49241 6.32411 5.90893 5.90893C6.32545 5.49375 7.30045 5.47768 8.2433 5.46429C9.14732 5.45089 10.0808 5.43616 10.8978 5.09866C11.7482 4.74643 12.4406 4.08214 13.1103 3.44062C13.7799 2.79911 14.4643 2.14286 15 2.14286C15.5357 2.14286 16.2254 2.80179 16.8897 3.44062C17.554 4.07946 18.2518 4.74643 19.1022 5.09866C19.9192 5.43616 20.8527 5.45089 21.7567 5.46429C22.6942 5.47768 23.6759 5.49241 24.0911 5.90893C24.5062 6.32545 24.5223 7.30045 24.5357 8.2433C24.5491 9.14732 24.5638 10.0808 24.9013 10.8978C25.2536 11.7482 25.9179 12.4406 26.5594 13.1103C27.2009 13.7799 27.8571 14.4643 27.8571 15C27.8571 15.5357 27.1982 16.2254 26.5594 16.8897ZM21.1152 11.0277C21.2148 11.1272 21.2938 11.2454 21.3477 11.3754C21.4017 11.5055 21.4294 11.6449 21.4294 11.7857C21.4294 11.9265 21.4017 12.0659 21.3477 12.196C21.2938 12.3261 21.2148 12.4442 21.1152 12.5438L13.6152 20.0437C13.5157 20.1434 13.3975 20.2224 13.2674 20.2763C13.1374 20.3302 12.9979 20.358 12.8571 20.358C12.7163 20.358 12.5769 20.3302 12.4468 20.2763C12.3168 20.2224 12.1986 20.1434 12.0991 20.0437L8.88482 16.8295C8.68378 16.6284 8.57083 16.3557 8.57083 16.0714C8.57083 15.7871 8.68378 15.5144 8.88482 15.3134C9.08586 15.1123 9.35854 14.9994 9.64286 14.9994C9.92718 14.9994 10.1998 15.1123 10.4009 15.3134L12.8571 17.771L19.5991 11.0277C19.6986 10.9281 19.8168 10.849 19.9468 10.7951C20.0769 10.7412 20.2163 10.7134 20.3571 10.7134C20.4979 10.7134 20.6374 10.7412 20.7674 10.7951C20.8975 10.849 21.0157 10.9281 21.1152 11.0277Z" fill="white"/>
</svg>
