<svg width="25" height="25" viewBox="0 0 25 25" fill="none" xmlns="http://www.w3.org/2000/svg">
<path d="M19.6657 14.524L15.8192 12.601C15.6677 12.5255 15.4991 12.4913 15.3303 12.5019C15.1614 12.5124 14.9984 12.5673 14.8575 12.6611L13.0917 13.8389C12.2811 13.3934 11.6141 12.7264 11.1685 11.9159L12.3465 10.1502C12.4402 10.0094 12.4951 9.84636 12.5056 9.67754C12.5162 9.50872 12.482 9.3401 12.4066 9.1887L10.4833 5.34255C10.4036 5.18158 10.2804 5.04615 10.1276 4.95162C9.97486 4.85708 9.79868 4.80723 9.61904 4.80769C8.34383 4.80769 7.12086 5.31422 6.21916 6.21583C5.31745 7.11745 4.81088 8.34031 4.81088 9.61538C4.81406 12.4196 5.92954 15.108 7.9126 17.0909C9.89566 19.0738 12.5844 20.1891 15.3888 20.1923C16.0202 20.1923 16.6455 20.068 17.2288 19.8263C17.8122 19.5847 18.3422 19.2306 18.7887 18.7842C19.2352 18.3377 19.5893 17.8077 19.831 17.2244C20.0726 16.6411 20.197 16.016 20.197 15.3846C20.1971 15.206 20.1475 15.0308 20.0536 14.8788C19.9598 14.7268 19.8254 14.604 19.6657 14.524ZM15.3888 18.2692C13.0942 18.2667 10.8944 17.3541 9.27185 15.7318C7.64934 14.1094 6.73669 11.9097 6.73414 9.61538C6.73396 8.94846 6.96489 8.30208 7.38765 7.78623C7.8104 7.27038 8.39886 6.91694 9.05288 6.78606L10.4328 9.55048L9.25842 11.2981C9.17067 11.4297 9.11674 11.581 9.10144 11.7384C9.08613 11.8959 9.10991 12.0547 9.17068 12.2007C9.8587 13.8358 11.1596 15.1366 12.7948 15.8245C12.9413 15.888 13.1014 15.9139 13.2604 15.9001C13.4195 15.8863 13.5726 15.833 13.706 15.7452L15.4621 14.5745L18.2268 15.9543C18.0949 16.609 17.7399 17.1977 17.2223 17.6199C16.7048 18.042 16.0567 18.2715 15.3888 18.2692ZM12.5039 2.97687e-07C10.3456 -0.000470627 8.22397 0.557798 6.34547 1.62047C4.46696 2.68314 2.89561 4.214 1.78436 6.06406C0.673102 7.91412 0.0598033 10.0203 0.00415658 12.1777C-0.0514902 14.3351 0.452411 16.4701 1.46681 18.375L0.102498 22.4675C-0.0105122 22.8064 -0.0269127 23.17 0.0551349 23.5176C0.137182 23.8653 0.314436 24.1832 0.567027 24.4358C0.819619 24.6883 1.13757 24.8656 1.48524 24.9476C1.8329 25.0296 2.19655 25.0132 2.53542 24.9002L6.62837 23.5361C8.30493 24.4277 10.1626 24.9257 12.0604 24.9923C13.9582 25.0589 15.8462 24.6923 17.5812 23.9203C19.3161 23.1484 20.8524 21.9914 22.0734 20.5371C23.2943 19.0829 24.1679 17.3696 24.6278 15.5273C25.0877 13.6851 25.1219 11.7623 24.7276 9.90485C24.3334 8.04744 23.5211 6.30425 22.3525 4.80759C21.1839 3.31093 19.6897 2.10014 17.9832 1.26713C16.2767 0.434121 14.4029 0.000779123 12.5039 2.97687e-07ZM12.5039 23.0769C10.6443 23.0782 8.81739 22.5885 7.20775 21.6575C7.08989 21.5891 6.95886 21.5466 6.82334 21.5327C6.68781 21.5188 6.55088 21.5339 6.42161 21.5769L1.92599 23.0769L3.42493 18.5817C3.46814 18.4526 3.48341 18.3157 3.46973 18.1802C3.45606 18.0447 3.41374 17.9136 3.3456 17.7957C2.17959 15.7799 1.71144 13.4358 2.01377 11.1269C2.31611 8.81796 3.37203 6.67334 5.01774 5.02571C6.66344 3.37809 8.80693 2.31956 11.1157 2.01433C13.4244 1.70911 15.7694 2.17425 17.7868 3.3376C19.8042 4.50095 21.3813 6.29749 22.2733 8.4485C23.1654 10.5995 23.3226 12.9848 22.7206 15.2342C22.1185 17.4837 20.7909 19.4717 18.9437 20.8897C17.0964 22.3077 14.8328 23.0765 12.5039 23.0769Z" fill="#A8A7A7"/>
</svg>
