<svg width="16" height="16" viewBox="0 0 16 16" fill="none" xmlns="http://www.w3.org/2000/svg">
<path d="M12.1424 8.96859L9.76739 7.78109C9.6739 7.73451 9.56978 7.71341 9.46553 7.71992C9.36128 7.72644 9.2606 7.76034 9.17364 7.8182L8.08336 8.54555C7.58287 8.27041 7.171 7.85854 6.89586 7.35805L7.62321 6.26777C7.68107 6.18081 7.71497 6.08013 7.72149 5.97588C7.728 5.87163 7.7069 5.76751 7.66032 5.67402L6.47282 3.29902C6.4236 3.19962 6.34752 3.116 6.2532 3.05762C6.15889 2.99925 6.0501 2.96846 5.93918 2.96875C5.15182 2.96875 4.39671 3.28153 3.83996 3.83828C3.28321 4.39503 2.97043 5.15014 2.97043 5.9375C2.9724 7.66909 3.66114 9.3292 4.88556 10.5536C6.10998 11.778 7.77009 12.4668 9.50169 12.4688C9.89155 12.4688 10.2776 12.392 10.6378 12.2428C10.998 12.0936 11.3252 11.8749 11.6009 11.5992C11.8766 11.3235 12.0953 10.9963 12.2445 10.6361C12.3936 10.2759 12.4704 9.88986 12.4704 9.5C12.4705 9.38969 12.4399 9.28155 12.3819 9.18768C12.324 9.09382 12.241 9.01796 12.1424 8.96859ZM9.50169 11.2812C8.08492 11.2797 6.72663 10.7162 5.72482 9.71437C4.72301 8.71256 4.15951 7.35427 4.15793 5.9375C4.15782 5.52567 4.30041 5.12653 4.56143 4.808C4.82246 4.48946 5.1858 4.27121 5.58961 4.19039L6.44165 5.89742L5.71653 6.97656C5.66234 7.05784 5.62905 7.15124 5.6196 7.24847C5.61015 7.34569 5.62483 7.44375 5.66235 7.53395C6.08717 8.5436 6.89038 9.34682 7.90004 9.77164C7.99051 9.81082 8.08931 9.82686 8.18753 9.81831C8.28575 9.80976 8.38029 9.77689 8.46262 9.72266L9.54696 8.99977L11.254 9.8518C11.1725 10.2561 10.9533 10.6196 10.6338 10.8803C10.3142 11.1409 9.91409 11.2827 9.50169 11.2812ZM7.72043 1.83822e-07C6.38781 -0.000290612 5.07782 0.34444 3.91795 1.00064C2.75809 1.65684 1.78787 2.60215 1.10173 3.74456C0.4156 4.88697 0.036925 6.18756 0.00256644 7.51974C-0.0317921 8.85192 0.279337 10.1703 0.905669 11.3466L0.0632864 13.8737C-0.00649067 14.0829 -0.016617 14.3075 0.0340425 14.5221C0.084702 14.7368 0.194145 14.9331 0.350106 15.0891C0.506066 15.245 0.70238 15.3545 0.917045 15.4051C1.13171 15.4558 1.35624 15.4457 1.56547 15.3759L4.09262 14.5335C5.1278 15.0841 6.27481 15.3916 7.44659 15.4328C8.61836 15.4739 9.78411 15.2475 10.8553 14.7708C11.9266 14.2941 12.8751 13.5797 13.629 12.6817C14.3829 11.7837 14.9223 10.7257 15.2062 9.58812C15.4902 8.45053 15.5113 7.2632 15.2678 6.11625C15.0244 4.9693 14.5229 3.89287 13.8013 2.96869C13.0798 2.0445 12.1572 1.29684 11.1036 0.782454C10.0499 0.26807 8.89293 0.000481108 7.72043 1.83822e-07ZM7.72043 14.25C6.57225 14.2508 5.44422 13.9484 4.45036 13.3735C4.37759 13.3313 4.29669 13.305 4.21301 13.2964C4.12933 13.2879 4.04478 13.2972 3.96497 13.3238L1.18918 14.25L2.11469 11.4742C2.14137 11.3945 2.1508 11.3099 2.14236 11.2263C2.13391 11.1426 2.10779 11.0617 2.06571 10.9888C1.34576 9.74411 1.05671 8.2966 1.24339 6.87085C1.43006 5.44509 2.08203 4.12079 3.09816 3.10338C4.11428 2.08597 5.43776 1.43233 6.86328 1.24385C8.2888 1.05537 9.73667 1.3426 10.9823 2.06097C12.2279 2.77934 13.2017 3.8887 13.7525 5.21695C14.3033 6.5452 14.4003 8.0181 14.0286 9.40714C13.6569 10.7962 12.8372 12.0237 11.6966 12.8994C10.556 13.775 9.15836 14.2498 7.72043 14.25Z" fill="black"/>
</svg>
